<svg xmlns="http://www.w3.org/2000/svg" xmlns:xlink="http://www.w3.org/1999/xlink" contentStyleType="text/css" height="348px" preserveAspectRatio="none" style="width:3690px;height:348px;background:#FFFFFF;" version="1.1" viewBox="0 0 3690 348" width="3690px" zoomAndPan="magnify"><defs/><g><!--cluster 43b961d0284d503f933286d3e4dcad39--><g id="cluster_43b961d0284d503f933286d3e4dcad39"><path d="M8.5,6 L144.5,6 A3.75,3.75 0 0 1 147,8.5 L154,28.2969 L511.5,28.2969 A2.5,2.5 0 0 1 514,30.7969 L514,315.28 A2.5,2.5 0 0 1 511.5,317.78 L8.5,317.78 A2.5,2.5 0 0 1 6,315.28 L6,8.5 A2.5,2.5 0 0 1 8.5,6 " fill="none" style="stroke:#000000;stroke-width:1.5;"/><line style="stroke:#000000;stroke-width:1.5;" x1="6" x2="154" y1="28.2969" y2="28.2969"/><text fill="#000000" font-family="sans-serif" font-size="14" font-weight="bold" lengthAdjust="spacing" textLength="135" x="10" y="20.9951">apprise_api/core/</text></g><!--cluster ebd30ddce584da03e2fc92d9ce773b7c--><g id="cluster_ebd30ddce584da03e2fc92d9ce773b7c"><path d="M32.5,49 L130.5,49 A3.75,3.75 0 0 1 133,51.5 L140,71.2969 L272.5,71.2969 A2.5,2.5 0 0 1 275,73.7969 L275,176.39 A2.5,2.5 0 0 1 272.5,178.89 L32.5,178.89 A2.5,2.5 0 0 1 30,176.39 L30,51.5 A2.5,2.5 0 0 1 32.5,49 " fill="none" style="stroke:#000000;stroke-width:1.5;"/><line style="stroke:#000000;stroke-width:1.5;" x1="30" x2="140" y1="71.2969" y2="71.2969"/><text fill="#000000" font-family="sans-serif" font-size="14" font-weight="bold" lengthAdjust="spacing" textLength="97" x="34" y="63.9951">middleware/</text></g><!--cluster 9be3515dd23a5ba7091efce0229e7fe6--><g id="cluster_9be3515dd23a5ba7091efce0229e7fe6"><path d="M540.5,6 L663.5,6 A3.75,3.75 0 0 1 666,8.5 L673,28.2969 L3458.5,28.2969 A2.5,2.5 0 0 1 3461,30.7969 L3461,339.28 A2.5,2.5 0 0 1 3458.5,341.78 L540.5,341.78 A2.5,2.5 0 0 1 538,339.28 L538,8.5 A2.5,2.5 0 0 1 540.5,6 " fill="none" style="stroke:#000000;stroke-width:1.5;"/><line style="stroke:#000000;stroke-width:1.5;" x1="538" x2="673" y1="28.2969" y2="28.2969"/><text fill="#000000" font-family="sans-serif" font-size="14" font-weight="bold" lengthAdjust="spacing" textLength="122" x="542" y="20.9951">apprise_api/api/</text></g><!--cluster 8f250b9c664e8ec8b957bb1b75ff89cb--><g id="cluster_8f250b9c664e8ec8b957bb1b75ff89cb"><path d="M564.5,49 L610.5,49 A3.75,3.75 0 0 1 613,51.5 L620,71.2969 L2888.5,71.2969 A2.5,2.5 0 0 1 2891,73.7969 L2891,315.28 A2.5,2.5 0 0 1 2888.5,317.78 L564.5,317.78 A2.5,2.5 0 0 1 562,315.28 L562,51.5 A2.5,2.5 0 0 1 564.5,49 " fill="none" style="stroke:#000000;stroke-width:1.5;"/><line style="stroke:#000000;stroke-width:1.5;" x1="562" x2="620" y1="71.2969" y2="71.2969"/><text fill="#000000" font-family="sans-serif" font-size="14" font-weight="bold" lengthAdjust="spacing" textLength="45" x="566" y="63.9951">tests/</text></g><!--entity d90791eaddabc9640d471e31dd68a40c--><g id="elem_d90791eaddabc9640d471e31dd68a40c"><rect fill="#F1F1F1" height="78.8906" rx="2.5" ry="2.5" style="stroke:#181818;stroke-width:0.5;" width="70" x="294" y="84"/><rect fill="#F1F1F1" height="10" style="stroke:#181818;stroke-width:0.5;" width="15" x="344" y="89"/><rect fill="#F1F1F1" height="2" style="stroke:#181818;stroke-width:0.5;" width="4" x="342" y="91"/><rect fill="#F1F1F1" height="2" style="stroke:#181818;stroke-width:0.5;" width="4" x="342" y="95"/><text fill="#000000" font-family="sans-serif" font-size="14" font-weight="bold" lengthAdjust="spacing" textLength="30" x="309" y="116.9951">urls</text><text fill="#000000" font-family="sans-serif" font-size="14" lengthAdjust="spacing" textLength="4" x="309" y="133.292">&#160;</text><text fill="#000000" font-family="sans-serif" font-size="14" lengthAdjust="spacing" textLength="4" x="309" y="149.5889">&#160;</text></g><!--entity 0a3261dbdd795a7260839c9875ef13ef--><g id="elem_0a3261dbdd795a7260839c9875ef13ef"><rect fill="#F1F1F1" height="78.8906" rx="2.5" ry="2.5" style="stroke:#181818;stroke-width:0.5;" width="99" x="398.5" y="84"/><rect fill="#F1F1F1" height="10" style="stroke:#181818;stroke-width:0.5;" width="15" x="477.5" y="89"/><rect fill="#F1F1F1" height="2" style="stroke:#181818;stroke-width:0.5;" width="4" x="475.5" y="91"/><rect fill="#F1F1F1" height="2" style="stroke:#181818;stroke-width:0.5;" width="4" x="475.5" y="95"/><text fill="#000000" font-family="sans-serif" font-size="14" font-weight="bold" lengthAdjust="spacing" textLength="59" x="413.5" y="116.9951">themes</text><text fill="#000000" font-family="sans-serif" font-size="14" lengthAdjust="spacing" textLength="4" x="413.5" y="133.292">&#160;</text><text fill="#000000" font-family="sans-serif" font-size="14" lengthAdjust="spacing" textLength="4" x="413.5" y="149.5889">&#160;</text></g><!--entity 82d842f049178c2423243f13c9a27b07--><g id="elem_82d842f049178c2423243f13c9a27b07"><rect fill="#F1F1F1" height="78.8906" rx="2.5" ry="2.5" style="stroke:#181818;stroke-width:0.5;" width="197" x="230.5" y="222.89"/><rect fill="#F1F1F1" height="10" style="stroke:#181818;stroke-width:0.5;" width="15" x="407.5" y="227.89"/><rect fill="#F1F1F1" height="2" style="stroke:#181818;stroke-width:0.5;" width="4" x="405.5" y="229.89"/><rect fill="#F1F1F1" height="2" style="stroke:#181818;stroke-width:0.5;" width="4" x="405.5" y="233.89"/><text fill="#000000" font-family="sans-serif" font-size="14" font-weight="bold" lengthAdjust="spacing" textLength="157" x="245.5" y="255.8851">context_processors</text><text fill="#000000" font-family="sans-serif" font-size="14" lengthAdjust="spacing" textLength="4" x="245.5" y="272.182">&#160;</text><text fill="#000000" font-family="sans-serif" font-size="14" lengthAdjust="spacing" textLength="4" x="245.5" y="288.4789">&#160;</text></g><!--entity 7e53ac082b3cc6f067a21a6c2a0643e3--><g id="elem_7e53ac082b3cc6f067a21a6c2a0643e3"><rect fill="#F1F1F1" height="78.8906" rx="2.5" ry="2.5" style="stroke:#181818;stroke-width:0.5;" width="90" x="46" y="84"/><rect fill="#F1F1F1" height="10" style="stroke:#181818;stroke-width:0.5;" width="15" x="116" y="89"/><rect fill="#F1F1F1" height="2" style="stroke:#181818;stroke-width:0.5;" width="4" x="114" y="91"/><rect fill="#F1F1F1" height="2" style="stroke:#181818;stroke-width:0.5;" width="4" x="114" y="95"/><text fill="#000000" font-family="sans-serif" font-size="14" font-weight="bold" lengthAdjust="spacing" textLength="50" x="61" y="116.9951">theme</text><text fill="#000000" font-family="sans-serif" font-size="14" lengthAdjust="spacing" textLength="4" x="61" y="133.292">&#160;</text><text fill="#000000" font-family="sans-serif" font-size="14" lengthAdjust="spacing" textLength="4" x="61" y="149.5889">&#160;</text></g><!--entity c77388618bb98a3f65edcaf6492c57e5--><g id="elem_c77388618bb98a3f65edcaf6492c57e5"><rect fill="#F1F1F1" height="78.8906" rx="2.5" ry="2.5" style="stroke:#181818;stroke-width:0.5;" width="89" x="170.5" y="84"/><rect fill="#F1F1F1" height="10" style="stroke:#181818;stroke-width:0.5;" width="15" x="239.5" y="89"/><rect fill="#F1F1F1" height="2" style="stroke:#181818;stroke-width:0.5;" width="4" x="237.5" y="91"/><rect fill="#F1F1F1" height="2" style="stroke:#181818;stroke-width:0.5;" width="4" x="237.5" y="95"/><text fill="#000000" font-family="sans-serif" font-size="14" font-weight="bold" lengthAdjust="spacing" textLength="49" x="185.5" y="116.9951">config</text><text fill="#000000" font-family="sans-serif" font-size="14" lengthAdjust="spacing" textLength="4" x="185.5" y="133.292">&#160;</text><text fill="#000000" font-family="sans-serif" font-size="14" lengthAdjust="spacing" textLength="4" x="185.5" y="149.5889">&#160;</text></g><!--entity 63cd98c99bb9d208a6d40f16a5fa7fb4--><g id="elem_63cd98c99bb9d208a6d40f16a5fa7fb4"><rect fill="#F1F1F1" height="78.8906" rx="2.5" ry="2.5" style="stroke:#181818;stroke-width:0.5;" width="86" x="2907" y="222.89"/><rect fill="#F1F1F1" height="10" style="stroke:#181818;stroke-width:0.5;" width="15" x="2973" y="227.89"/><rect fill="#F1F1F1" height="2" style="stroke:#181818;stroke-width:0.5;" width="4" x="2971" y="229.89"/><rect fill="#F1F1F1" height="2" style="stroke:#181818;stroke-width:0.5;" width="4" x="2971" y="233.89"/><text fill="#000000" font-family="sans-serif" font-size="14" font-weight="bold" lengthAdjust="spacing" textLength="46" x="2922" y="255.8851">forms</text><text fill="#000000" font-family="sans-serif" font-size="14" lengthAdjust="spacing" textLength="4" x="2922" y="272.182">&#160;</text><text fill="#000000" font-family="sans-serif" font-size="14" lengthAdjust="spacing" textLength="4" x="2922" y="288.4789">&#160;</text></g><!--entity d49ca79ca7b1dd55d2c3c84a76817879--><g id="elem_d49ca79ca7b1dd55d2c3c84a76817879"><rect fill="#F1F1F1" height="78.8906" rx="2.5" ry="2.5" style="stroke:#181818;stroke-width:0.5;" width="70" x="3262" y="84"/><rect fill="#F1F1F1" height="10" style="stroke:#181818;stroke-width:0.5;" width="15" x="3312" y="89"/><rect fill="#F1F1F1" height="2" style="stroke:#181818;stroke-width:0.5;" width="4" x="3310" y="91"/><rect fill="#F1F1F1" height="2" style="stroke:#181818;stroke-width:0.5;" width="4" x="3310" y="95"/><text fill="#000000" font-family="sans-serif" font-size="14" font-weight="bold" lengthAdjust="spacing" textLength="30" x="3277" y="116.9951">urls</text><text fill="#000000" font-family="sans-serif" font-size="14" lengthAdjust="spacing" textLength="4" x="3277" y="133.292">&#160;</text><text fill="#000000" font-family="sans-serif" font-size="14" lengthAdjust="spacing" textLength="4" x="3277" y="149.5889">&#160;</text></g><!--entity f6397f46cd8cbd5349bfdc1dc841dfbd--><g id="elem_f6397f46cd8cbd5349bfdc1dc841dfbd"><rect fill="#F1F1F1" height="78.8906" rx="2.5" ry="2.5" style="stroke:#181818;stroke-width:0.5;" width="197" x="2909.5" y="84"/><rect fill="#F1F1F1" height="10" style="stroke:#181818;stroke-width:0.5;" width="15" x="3086.5" y="89"/><rect fill="#F1F1F1" height="2" style="stroke:#181818;stroke-width:0.5;" width="4" x="3084.5" y="91"/><rect fill="#F1F1F1" height="2" style="stroke:#181818;stroke-width:0.5;" width="4" x="3084.5" y="95"/><text fill="#000000" font-family="sans-serif" font-size="14" font-weight="bold" lengthAdjust="spacing" textLength="157" x="2924.5" y="116.9951">context_processors</text><text fill="#000000" font-family="sans-serif" font-size="14" lengthAdjust="spacing" textLength="4" x="2924.5" y="133.292">&#160;</text><text fill="#000000" font-family="sans-serif" font-size="14" lengthAdjust="spacing" textLength="4" x="2924.5" y="149.5889">&#160;</text></g><!--entity 3039c4a2cef5fb72d24a0c191921afc4--><g id="elem_3039c4a2cef5fb72d24a0c191921afc4"><rect fill="#F1F1F1" height="78.8906" rx="2.5" ry="2.5" style="stroke:#181818;stroke-width:0.5;" width="73" x="3027.5" y="222.89"/><rect fill="#F1F1F1" height="10" style="stroke:#181818;stroke-width:0.5;" width="15" x="3080.5" y="227.89"/><rect fill="#F1F1F1" height="2" style="stroke:#181818;stroke-width:0.5;" width="4" x="3078.5" y="229.89"/><rect fill="#F1F1F1" height="2" style="stroke:#181818;stroke-width:0.5;" width="4" x="3078.5" y="233.89"/><text fill="#000000" font-family="sans-serif" font-size="14" font-weight="bold" lengthAdjust="spacing" textLength="33" x="3042.5" y="255.8851">utils</text><text fill="#000000" font-family="sans-serif" font-size="14" lengthAdjust="spacing" textLength="4" x="3042.5" y="272.182">&#160;</text><text fill="#000000" font-family="sans-serif" font-size="14" lengthAdjust="spacing" textLength="4" x="3042.5" y="288.4789">&#160;</text></g><!--entity f30489f76321bdb7dd09ba5ac0c531b6--><g id="elem_f30489f76321bdb7dd09ba5ac0c531b6"><rect fill="#F1F1F1" height="78.8906" rx="2.5" ry="2.5" style="stroke:#181818;stroke-width:0.5;" width="86" x="3141" y="84"/><rect fill="#F1F1F1" height="10" style="stroke:#181818;stroke-width:0.5;" width="15" x="3207" y="89"/><rect fill="#F1F1F1" height="2" style="stroke:#181818;stroke-width:0.5;" width="4" x="3205" y="91"/><rect fill="#F1F1F1" height="2" style="stroke:#181818;stroke-width:0.5;" width="4" x="3205" y="95"/><text fill="#000000" font-family="sans-serif" font-size="14" font-weight="bold" lengthAdjust="spacing" textLength="46" x="3156" y="116.9951">views</text><text fill="#000000" font-family="sans-serif" font-size="14" lengthAdjust="spacing" textLength="4" x="3156" y="133.292">&#160;</text><text fill="#000000" font-family="sans-serif" font-size="14" lengthAdjust="spacing" textLength="4" x="3156" y="149.5889">&#160;</text></g><!--entity 27f39f429e65b8e3529599009bd177dd--><g id="elem_27f39f429e65b8e3529599009bd177dd"><rect fill="#F1F1F1" height="78.8906" rx="2.5" ry="2.5" style="stroke:#181818;stroke-width:0.5;" width="168" x="3135" y="222.89"/><rect fill="#F1F1F1" height="10" style="stroke:#181818;stroke-width:0.5;" width="15" x="3283" y="227.89"/><rect fill="#F1F1F1" height="2" style="stroke:#181818;stroke-width:0.5;" width="4" x="3281" y="229.89"/><rect fill="#F1F1F1" height="2" style="stroke:#181818;stroke-width:0.5;" width="4" x="3281" y="233.89"/><text fill="#000000" font-family="sans-serif" font-size="14" font-weight="bold" lengthAdjust="spacing" textLength="128" x="3150" y="255.8851">payload_mapper</text><text fill="#000000" font-family="sans-serif" font-size="14" lengthAdjust="spacing" textLength="4" x="3150" y="272.182">&#160;</text><text fill="#000000" font-family="sans-serif" font-size="14" lengthAdjust="spacing" textLength="4" x="3150" y="288.4789">&#160;</text></g><!--entity 0d939f699a574ef899ca90d3c060f70b--><g id="elem_0d939f699a574ef899ca90d3c060f70b"><rect fill="#F1F1F1" height="78.8906" rx="2.5" ry="2.5" style="stroke:#181818;stroke-width:0.5;" width="78" x="3367" y="84"/><rect fill="#F1F1F1" height="10" style="stroke:#181818;stroke-width:0.5;" width="15" x="3425" y="89"/><rect fill="#F1F1F1" height="2" style="stroke:#181818;stroke-width:0.5;" width="4" x="3423" y="91"/><rect fill="#F1F1F1" height="2" style="stroke:#181818;stroke-width:0.5;" width="4" x="3423" y="95"/><text fill="#000000" font-family="sans-serif" font-size="14" font-weight="bold" lengthAdjust="spacing" textLength="38" x="3382" y="116.9951">apps</text><text fill="#000000" font-family="sans-serif" font-size="14" lengthAdjust="spacing" textLength="4" x="3382" y="133.292">&#160;</text><text fill="#000000" font-family="sans-serif" font-size="14" lengthAdjust="spacing" textLength="4" x="3382" y="149.5889">&#160;</text></g><!--entity 09de79beb7a7cfc0915ffa9f824cfd6f--><g id="elem_09de79beb7a7cfc0915ffa9f824cfd6f"><rect fill="#F1F1F1" height="78.8906" rx="2.5" ry="2.5" style="stroke:#181818;stroke-width:0.5;" width="97" x="3337.5" y="222.89"/><rect fill="#F1F1F1" height="10" style="stroke:#181818;stroke-width:0.5;" width="15" x="3414.5" y="227.89"/><rect fill="#F1F1F1" height="2" style="stroke:#181818;stroke-width:0.5;" width="4" x="3412.5" y="229.89"/><rect fill="#F1F1F1" height="2" style="stroke:#181818;stroke-width:0.5;" width="4" x="3412.5" y="233.89"/><text fill="#000000" font-family="sans-serif" font-size="14" font-weight="bold" lengthAdjust="spacing" textLength="57" x="3352.5" y="255.8851">models</text><text fill="#000000" font-family="sans-serif" font-size="14" lengthAdjust="spacing" textLength="4" x="3352.5" y="272.182">&#160;</text><text fill="#000000" font-family="sans-serif" font-size="14" lengthAdjust="spacing" textLength="4" x="3352.5" y="288.4789">&#160;</text></g><!--entity 8e025660b4cb7597b07b4d2e29b335ec--><g id="elem_8e025660b4cb7597b07b4d2e29b335ec"><rect fill="#F1F1F1" height="78.8906" rx="2.5" ry="2.5" style="stroke:#181818;stroke-width:0.5;" width="190" x="1621" y="84"/><rect fill="#F1F1F1" height="10" style="stroke:#181818;stroke-width:0.5;" width="15" x="1791" y="89"/><rect fill="#F1F1F1" height="2" style="stroke:#181818;stroke-width:0.5;" width="4" x="1789" y="91"/><rect fill="#F1F1F1" height="2" style="stroke:#181818;stroke-width:0.5;" width="4" x="1789" y="95"/><text fill="#000000" font-family="sans-serif" font-size="14" font-weight="bold" lengthAdjust="spacing" textLength="150" x="1636" y="116.9951">test_stateful_notify</text><text fill="#000000" font-family="sans-serif" font-size="14" lengthAdjust="spacing" textLength="4" x="1636" y="133.292">&#160;</text><text fill="#000000" font-family="sans-serif" font-size="14" lengthAdjust="spacing" textLength="4" x="1636" y="149.5889">&#160;</text></g><!--entity 4125670e549b5b6bc6c62330220048cc--><g id="elem_4125670e549b5b6bc6c62330220048cc"><rect fill="#F1F1F1" height="78.8906" rx="2.5" ry="2.5" style="stroke:#181818;stroke-width:0.5;" width="147" x="578.5" y="84"/><rect fill="#F1F1F1" height="10" style="stroke:#181818;stroke-width:0.5;" width="15" x="705.5" y="89"/><rect fill="#F1F1F1" height="2" style="stroke:#181818;stroke-width:0.5;" width="4" x="703.5" y="91"/><rect fill="#F1F1F1" height="2" style="stroke:#181818;stroke-width:0.5;" width="4" x="703.5" y="95"/><text fill="#000000" font-family="sans-serif" font-size="14" font-weight="bold" lengthAdjust="spacing" textLength="107" x="593.5" y="116.9951">test_manager</text><text fill="#000000" font-family="sans-serif" font-size="14" lengthAdjust="spacing" textLength="4" x="593.5" y="133.292">&#160;</text><text fill="#000000" font-family="sans-serif" font-size="14" lengthAdjust="spacing" textLength="4" x="593.5" y="149.5889">&#160;</text></g><!--entity 7b34f9be3f1d17f51bf7843743457c9f--><g id="elem_7b34f9be3f1d17f51bf7843743457c9f"><rect fill="#F1F1F1" height="78.8906" rx="2.5" ry="2.5" style="stroke:#181818;stroke-width:0.5;" width="181" x="2233.5" y="84"/><rect fill="#F1F1F1" height="10" style="stroke:#181818;stroke-width:0.5;" width="15" x="2394.5" y="89"/><rect fill="#F1F1F1" height="2" style="stroke:#181818;stroke-width:0.5;" width="4" x="2392.5" y="91"/><rect fill="#F1F1F1" height="2" style="stroke:#181818;stroke-width:0.5;" width="4" x="2392.5" y="95"/><text fill="#000000" font-family="sans-serif" font-size="14" font-weight="bold" lengthAdjust="spacing" textLength="141" x="2248.5" y="116.9951">test_config_cache</text><text fill="#000000" font-family="sans-serif" font-size="14" lengthAdjust="spacing" textLength="4" x="2248.5" y="133.292">&#160;</text><text fill="#000000" font-family="sans-serif" font-size="14" lengthAdjust="spacing" textLength="4" x="2248.5" y="149.5889">&#160;</text></g><!--entity 917dfe7eda8dab71e9edd4db7441cfe5--><g id="elem_917dfe7eda8dab71e9edd4db7441cfe5"><rect fill="#F1F1F1" height="78.8906" rx="2.5" ry="2.5" style="stroke:#181818;stroke-width:0.5;" width="202" x="1083" y="84"/><rect fill="#F1F1F1" height="10" style="stroke:#181818;stroke-width:0.5;" width="15" x="1265" y="89"/><rect fill="#F1F1F1" height="2" style="stroke:#181818;stroke-width:0.5;" width="4" x="1263" y="91"/><rect fill="#F1F1F1" height="2" style="stroke:#181818;stroke-width:0.5;" width="4" x="1263" y="95"/><text fill="#000000" font-family="sans-serif" font-size="14" font-weight="bold" lengthAdjust="spacing" textLength="162" x="1098" y="116.9951">test_stateless_notify</text><text fill="#000000" font-family="sans-serif" font-size="14" lengthAdjust="spacing" textLength="4" x="1098" y="133.292">&#160;</text><text fill="#000000" font-family="sans-serif" font-size="14" lengthAdjust="spacing" textLength="4" x="1098" y="149.5889">&#160;</text></g><!--entity f66d9b1df8c2c91311646596d17846b5--><g id="elem_f66d9b1df8c2c91311646596d17846b5"><rect fill="#F1F1F1" height="78.8906" rx="2.5" ry="2.5" style="stroke:#181818;stroke-width:0.5;" width="104" x="760" y="84"/><rect fill="#F1F1F1" height="10" style="stroke:#181818;stroke-width:0.5;" width="15" x="844" y="89"/><rect fill="#F1F1F1" height="2" style="stroke:#181818;stroke-width:0.5;" width="4" x="842" y="91"/><rect fill="#F1F1F1" height="2" style="stroke:#181818;stroke-width:0.5;" width="4" x="842" y="95"/><text fill="#000000" font-family="sans-serif" font-size="14" font-weight="bold" lengthAdjust="spacing" textLength="64" x="775" y="116.9951">test_get</text><text fill="#000000" font-family="sans-serif" font-size="14" lengthAdjust="spacing" textLength="4" x="775" y="133.292">&#160;</text><text fill="#000000" font-family="sans-serif" font-size="14" lengthAdjust="spacing" textLength="4" x="775" y="149.5889">&#160;</text></g><!--entity 644076712b2dfb3214d35adbb58911f9--><g id="elem_644076712b2dfb3214d35adbb58911f9"><rect fill="#F1F1F1" height="78.8906" rx="2.5" ry="2.5" style="stroke:#181818;stroke-width:0.5;" width="149" x="898.5" y="84"/><rect fill="#F1F1F1" height="10" style="stroke:#181818;stroke-width:0.5;" width="15" x="1027.5" y="89"/><rect fill="#F1F1F1" height="2" style="stroke:#181818;stroke-width:0.5;" width="4" x="1025.5" y="91"/><rect fill="#F1F1F1" height="2" style="stroke:#181818;stroke-width:0.5;" width="4" x="1025.5" y="95"/><text fill="#000000" font-family="sans-serif" font-size="14" font-weight="bold" lengthAdjust="spacing" textLength="109" x="913.5" y="116.9951">test_welcome</text><text fill="#000000" font-family="sans-serif" font-size="14" lengthAdjust="spacing" textLength="4" x="913.5" y="133.292">&#160;</text><text fill="#000000" font-family="sans-serif" font-size="14" lengthAdjust="spacing" textLength="4" x="913.5" y="149.5889">&#160;</text></g><!--entity 4147e9faadffa938278ac43a4f2b858a--><g id="elem_4147e9faadffa938278ac43a4f2b858a"><rect fill="#F1F1F1" height="78.8906" rx="2.5" ry="2.5" style="stroke:#181818;stroke-width:0.5;" width="102" x="601" y="222.89"/><rect fill="#F1F1F1" height="10" style="stroke:#181818;stroke-width:0.5;" width="15" x="683" y="227.89"/><rect fill="#F1F1F1" height="2" style="stroke:#181818;stroke-width:0.5;" width="4" x="681" y="229.89"/><rect fill="#F1F1F1" height="2" style="stroke:#181818;stroke-width:0.5;" width="4" x="681" y="233.89"/><text fill="#000000" font-family="sans-serif" font-size="14" font-weight="bold" lengthAdjust="spacing" textLength="62" x="616" y="255.8851">test_del</text><text fill="#000000" font-family="sans-serif" font-size="14" lengthAdjust="spacing" textLength="4" x="616" y="272.182">&#160;</text><text fill="#000000" font-family="sans-serif" font-size="14" lengthAdjust="spacing" textLength="4" x="616" y="288.4789">&#160;</text></g><!--entity 2a6e667268e57647e74b77d6fa9dd706--><g id="elem_2a6e667268e57647e74b77d6fa9dd706"><rect fill="#F1F1F1" height="78.8906" rx="2.5" ry="2.5" style="stroke:#181818;stroke-width:0.5;" width="148" x="738" y="222.89"/><rect fill="#F1F1F1" height="10" style="stroke:#181818;stroke-width:0.5;" width="15" x="866" y="227.89"/><rect fill="#F1F1F1" height="2" style="stroke:#181818;stroke-width:0.5;" width="4" x="864" y="229.89"/><rect fill="#F1F1F1" height="2" style="stroke:#181818;stroke-width:0.5;" width="4" x="864" y="233.89"/><text fill="#000000" font-family="sans-serif" font-size="14" font-weight="bold" lengthAdjust="spacing" textLength="108" x="753" y="255.8851">test_json_urls</text><text fill="#000000" font-family="sans-serif" font-size="14" lengthAdjust="spacing" textLength="4" x="753" y="272.182">&#160;</text><text fill="#000000" font-family="sans-serif" font-size="14" lengthAdjust="spacing" textLength="4" x="753" y="288.4789">&#160;</text></g><!--entity f275c2d12c1ad7fedf01c80eade2b49f--><g id="elem_f275c2d12c1ad7fedf01c80eade2b49f"><rect fill="#F1F1F1" height="78.8906" rx="2.5" ry="2.5" style="stroke:#181818;stroke-width:0.5;" width="184" x="2450" y="84"/><rect fill="#F1F1F1" height="10" style="stroke:#181818;stroke-width:0.5;" width="15" x="2614" y="89"/><rect fill="#F1F1F1" height="2" style="stroke:#181818;stroke-width:0.5;" width="4" x="2612" y="91"/><rect fill="#F1F1F1" height="2" style="stroke:#181818;stroke-width:0.5;" width="4" x="2612" y="95"/><text fill="#000000" font-family="sans-serif" font-size="14" font-weight="bold" lengthAdjust="spacing" textLength="144" x="2465" y="116.9951">test_healthecheck</text><text fill="#000000" font-family="sans-serif" font-size="14" lengthAdjust="spacing" textLength="4" x="2465" y="133.292">&#160;</text><text fill="#000000" font-family="sans-serif" font-size="14" lengthAdjust="spacing" textLength="4" x="2465" y="149.5889">&#160;</text></g><!--entity b713a2fa39530e0c6fa9a8a7094567eb--><g id="elem_b713a2fa39530e0c6fa9a8a7094567eb"><rect fill="#F1F1F1" height="78.8906" rx="2.5" ry="2.5" style="stroke:#181818;stroke-width:0.5;" width="206" x="2669" y="84"/><rect fill="#F1F1F1" height="10" style="stroke:#181818;stroke-width:0.5;" width="15" x="2855" y="89"/><rect fill="#F1F1F1" height="2" style="stroke:#181818;stroke-width:0.5;" width="4" x="2853" y="91"/><rect fill="#F1F1F1" height="2" style="stroke:#181818;stroke-width:0.5;" width="4" x="2853" y="95"/><text fill="#000000" font-family="sans-serif" font-size="14" font-weight="bold" lengthAdjust="spacing" textLength="166" x="2684" y="116.9951">test_payload_mapper</text><text fill="#000000" font-family="sans-serif" font-size="14" lengthAdjust="spacing" textLength="4" x="2684" y="133.292">&#160;</text><text fill="#000000" font-family="sans-serif" font-size="14" lengthAdjust="spacing" textLength="4" x="2684" y="149.5889">&#160;</text></g><!--entity 9353786c610935d80ba38fb14fa18f0e--><g id="elem_9353786c610935d80ba38fb14fa18f0e"><rect fill="#F1F1F1" height="78.8906" rx="2.5" ry="2.5" style="stroke:#181818;stroke-width:0.5;" width="123" x="1320.5" y="84"/><rect fill="#F1F1F1" height="10" style="stroke:#181818;stroke-width:0.5;" width="15" x="1423.5" y="89"/><rect fill="#F1F1F1" height="2" style="stroke:#181818;stroke-width:0.5;" width="4" x="1421.5" y="91"/><rect fill="#F1F1F1" height="2" style="stroke:#181818;stroke-width:0.5;" width="4" x="1421.5" y="95"/><text fill="#000000" font-family="sans-serif" font-size="14" font-weight="bold" lengthAdjust="spacing" textLength="83" x="1335.5" y="116.9951">test_notify</text><text fill="#000000" font-family="sans-serif" font-size="14" lengthAdjust="spacing" textLength="4" x="1335.5" y="133.292">&#160;</text><text fill="#000000" font-family="sans-serif" font-size="14" lengthAdjust="spacing" textLength="4" x="1335.5" y="149.5889">&#160;</text></g><!--entity abf643f6d80ed4d514b872e06e39d6d1--><g id="elem_abf643f6d80ed4d514b872e06e39d6d1"><rect fill="#F1F1F1" height="78.8906" rx="2.5" ry="2.5" style="stroke:#181818;stroke-width:0.5;" width="167" x="1845.5" y="84"/><rect fill="#F1F1F1" height="10" style="stroke:#181818;stroke-width:0.5;" width="15" x="1992.5" y="89"/><rect fill="#F1F1F1" height="2" style="stroke:#181818;stroke-width:0.5;" width="4" x="1990.5" y="91"/><rect fill="#F1F1F1" height="2" style="stroke:#181818;stroke-width:0.5;" width="4" x="1990.5" y="95"/><text fill="#000000" font-family="sans-serif" font-size="14" font-weight="bold" lengthAdjust="spacing" textLength="127" x="1860.5" y="116.9951">test_attachment</text><text fill="#000000" font-family="sans-serif" font-size="14" lengthAdjust="spacing" textLength="4" x="1860.5" y="133.292">&#160;</text><text fill="#000000" font-family="sans-serif" font-size="14" lengthAdjust="spacing" textLength="4" x="1860.5" y="149.5889">&#160;</text></g><!--entity ab0971a58d9bd28b86ee01516668dd5b--><g id="elem_ab0971a58d9bd28b86ee01516668dd5b"><rect fill="#F1F1F1" height="78.8906" rx="2.5" ry="2.5" style="stroke:#181818;stroke-width:0.5;" width="107" x="1478.5" y="84"/><rect fill="#F1F1F1" height="10" style="stroke:#181818;stroke-width:0.5;" width="15" x="1565.5" y="89"/><rect fill="#F1F1F1" height="2" style="stroke:#181818;stroke-width:0.5;" width="4" x="1563.5" y="91"/><rect fill="#F1F1F1" height="2" style="stroke:#181818;stroke-width:0.5;" width="4" x="1563.5" y="95"/><text fill="#000000" font-family="sans-serif" font-size="14" font-weight="bold" lengthAdjust="spacing" textLength="67" x="1493.5" y="116.9951">test_add</text><text fill="#000000" font-family="sans-serif" font-size="14" lengthAdjust="spacing" textLength="4" x="1493.5" y="133.292">&#160;</text><text fill="#000000" font-family="sans-serif" font-size="14" lengthAdjust="spacing" textLength="4" x="1493.5" y="149.5889">&#160;</text></g><!--entity 131f920bc1edc7843ac8a8bc4ac835eb--><g id="elem_131f920bc1edc7843ac8a8bc4ac835eb"><rect fill="#F1F1F1" height="78.8906" rx="2.5" ry="2.5" style="stroke:#181818;stroke-width:0.5;" width="130" x="921" y="222.89"/><rect fill="#F1F1F1" height="10" style="stroke:#181818;stroke-width:0.5;" width="15" x="1031" y="227.89"/><rect fill="#F1F1F1" height="2" style="stroke:#181818;stroke-width:0.5;" width="4" x="1029" y="229.89"/><rect fill="#F1F1F1" height="2" style="stroke:#181818;stroke-width:0.5;" width="4" x="1029" y="233.89"/><text fill="#000000" font-family="sans-serif" font-size="14" font-weight="bold" lengthAdjust="spacing" textLength="90" x="936" y="255.8851">test_details</text><text fill="#000000" font-family="sans-serif" font-size="14" lengthAdjust="spacing" textLength="4" x="936" y="272.182">&#160;</text><text fill="#000000" font-family="sans-serif" font-size="14" lengthAdjust="spacing" textLength="4" x="936" y="288.4789">&#160;</text></g><!--entity d7c52d892c7a6e7f1df16c6291e81488--><g id="elem_d7c52d892c7a6e7f1df16c6291e81488"><rect fill="#F1F1F1" height="78.8906" rx="2.5" ry="2.5" style="stroke:#181818;stroke-width:0.5;" width="151" x="2047.5" y="84"/><rect fill="#F1F1F1" height="10" style="stroke:#181818;stroke-width:0.5;" width="15" x="2178.5" y="89"/><rect fill="#F1F1F1" height="2" style="stroke:#181818;stroke-width:0.5;" width="4" x="2176.5" y="91"/><rect fill="#F1F1F1" height="2" style="stroke:#181818;stroke-width:0.5;" width="4" x="2176.5" y="95"/><text fill="#000000" font-family="sans-serif" font-size="14" font-weight="bold" lengthAdjust="spacing" textLength="111" x="2062.5" y="116.9951">test_webhook</text><text fill="#000000" font-family="sans-serif" font-size="14" lengthAdjust="spacing" textLength="4" x="2062.5" y="133.292">&#160;</text><text fill="#000000" font-family="sans-serif" font-size="14" lengthAdjust="spacing" textLength="4" x="2062.5" y="149.5889">&#160;</text></g><!--entity 036dde79909a4b1c52a1273a38c6ed13--><g id="elem_036dde79909a4b1c52a1273a38c6ed13"><rect fill="#F1F1F1" height="78.8906" rx="2.5" ry="2.5" style="stroke:#181818;stroke-width:0.5;" width="204" x="3480" y="84"/><rect fill="#F1F1F1" height="10" style="stroke:#181818;stroke-width:0.5;" width="15" x="3664" y="89"/><rect fill="#F1F1F1" height="2" style="stroke:#181818;stroke-width:0.5;" width="4" x="3662" y="91"/><rect fill="#F1F1F1" height="2" style="stroke:#181818;stroke-width:0.5;" width="4" x="3662" y="95"/><text fill="#000000" font-family="sans-serif" font-size="14" font-weight="bold" lengthAdjust="spacing" textLength="164" x="3495" y="116.9951">apprise_api/gunicorn</text><text fill="#000000" font-family="sans-serif" font-size="14" lengthAdjust="spacing" textLength="4" x="3495" y="133.292">&#160;</text><text fill="#000000" font-family="sans-serif" font-size="14" lengthAdjust="spacing" textLength="4" x="3495" y="149.5889">&#160;</text></g><!--link f6397f46cd8cbd5349bfdc1dc841dfbd to 3039c4a2cef5fb72d24a0c191921afc4--><g id="link_f6397f46cd8cbd5349bfdc1dc841dfbd_3039c4a2cef5fb72d24a0c191921afc4"><path codeLine="155" d="M3023.9,163.31 C3031.53,181.96 3038.379,198.6864 3045.989,217.2964 " fill="none" id="f6397f46cd8cbd5349bfdc1dc841dfbd-to-3039c4a2cef5fb72d24a0c191921afc4" style="stroke:#181818;stroke-width:1.0;"/><polygon fill="#181818" points="3048.26,222.85,3048.5559,213.0056,3046.3675,218.222,3041.1511,216.0336,3048.26,222.85" style="stroke:#181818;stroke-width:1.0;"/></g><!--link 8e025660b4cb7597b07b4d2e29b335ec to 63cd98c99bb9d208a6d40f16a5fa7fb4--><g id="link_8e025660b4cb7597b07b4d2e29b335ec_63cd98c99bb9d208a6d40f16a5fa7fb4"><path codeLine="156" d="M1773.59,163.37 C1790.43,172.83 1809.34,181.7 1828,186.89 C2055.72,250.21 2665.6,151.76 2891,222.89 C2896.25,224.55 2896.1355,224.0635 2901.1855,226.6635 " fill="none" id="8e025660b4cb7597b07b4d2e29b335ec-to-63cd98c99bb9d208a6d40f16a5fa7fb4" style="stroke:#181818;stroke-width:1.0;"/><polygon fill="#181818" points="2906.52,229.41,2900.3492,221.734,2902.0746,227.1213,2896.6873,228.8466,2906.52,229.41" style="stroke:#181818;stroke-width:1.0;"/></g><!--link 8e025660b4cb7597b07b4d2e29b335ec to 3039c4a2cef5fb72d24a0c191921afc4--><g id="link_8e025660b4cb7597b07b4d2e29b335ec_3039c4a2cef5fb72d24a0c191921afc4"><path codeLine="157" d="M1773.29,163.25 C1790.2,172.77 1809.22,181.7 1828,186.89 C2081.3,256.87 2760.93,139.08 3010,222.89 C3015.89,224.87 3016.5427,224.6637 3022.0427,227.9337 " fill="none" id="8e025660b4cb7597b07b4d2e29b335ec-to-3039c4a2cef5fb72d24a0c191921afc4" style="stroke:#181818;stroke-width:1.0;"/><polygon fill="#181818" points="3027.2,231,3021.5082,222.9624,3022.9022,228.4448,3017.4198,229.8388,3027.2,231" style="stroke:#181818;stroke-width:1.0;"/></g><!--link 7b34f9be3f1d17f51bf7843743457c9f to 3039c4a2cef5fb72d24a0c191921afc4--><g id="link_7b34f9be3f1d17f51bf7843743457c9f_3039c4a2cef5fb72d24a0c191921afc4"><path codeLine="158" d="M2380.03,163.36 C2396.13,172.69 2414.17,181.51 2432,186.89 C2678.4,261.28 2767.39,136.94 3010,222.89 C3015.86,224.96 3016.5117,224.772 3022.0017,228.082 " fill="none" id="7b34f9be3f1d17f51bf7843743457c9f-to-3039c4a2cef5fb72d24a0c191921afc4" style="stroke:#181818;stroke-width:1.0;"/><polygon fill="#181818" points="3027.14,231.18,3021.4978,223.1075,3022.8581,228.5984,3017.3672,229.9586,3027.14,231.18" style="stroke:#181818;stroke-width:1.0;"/></g><!--link 917dfe7eda8dab71e9edd4db7441cfe5 to 63cd98c99bb9d208a6d40f16a5fa7fb4--><g id="link_917dfe7eda8dab71e9edd4db7441cfe5_63cd98c99bb9d208a6d40f16a5fa7fb4"><path codeLine="159" d="M1245.11,163.35 C1263.08,172.87 1283.23,181.78 1303,186.89 C1473.87,231.06 2722.4,170.72 2891,222.89 C2896.26,224.52 2896.1512,224.0219 2901.2012,226.6119 " fill="none" id="917dfe7eda8dab71e9edd4db7441cfe5-to-63cd98c99bb9d208a6d40f16a5fa7fb4" style="stroke:#181818;stroke-width:1.0;"/><polygon fill="#181818" points="2906.54,229.35,2900.3572,221.6836,2902.091,227.0682,2896.7064,228.802,2906.54,229.35" style="stroke:#181818;stroke-width:1.0;"/></g><!--link f275c2d12c1ad7fedf01c80eade2b49f to 3039c4a2cef5fb72d24a0c191921afc4--><g id="link_f275c2d12c1ad7fedf01c80eade2b49f_3039c4a2cef5fb72d24a0c191921afc4"><path codeLine="160" d="M2599.86,163.23 C2616.11,172.44 2634.21,181.23 2652,186.89 C2804.38,235.41 2860.31,166.64 3010,222.89 C3015.82,225.08 3016.4525,224.9342 3021.9325,228.2642 " fill="none" id="f275c2d12c1ad7fedf01c80eade2b49f-to-3039c4a2cef5fb72d24a0c191921afc4" style="stroke:#181818;stroke-width:1.0;"/><polygon fill="#181818" points="3027.06,231.38,3021.4459,223.2879,3022.7871,228.7835,3017.2915,230.1246,3027.06,231.38" style="stroke:#181818;stroke-width:1.0;"/></g><!--link b713a2fa39530e0c6fa9a8a7094567eb to 27f39f429e65b8e3529599009bd177dd--><g id="link_b713a2fa39530e0c6fa9a8a7094567eb_27f39f429e65b8e3529599009bd177dd"><path codeLine="161" d="M2829.48,163.32 C2845,172.3 2862.16,180.95 2879,186.89 C2980.31,222.6 3014.1,195.63 3118,222.89 C3123.44,224.32 3123.2759,224.1416 3128.8459,225.8916 " fill="none" id="b713a2fa39530e0c6fa9a8a7094567eb-to-27f39f429e65b8e3529599009bd177dd" style="stroke:#181818;stroke-width:1.0;"/><polygon fill="#181818" points="3134.57,227.69,3127.1828,221.1763,3129.7999,226.1913,3124.7849,228.8084,3134.57,227.69" style="stroke:#181818;stroke-width:1.0;"/></g><!--link 9353786c610935d80ba38fb14fa18f0e to 63cd98c99bb9d208a6d40f16a5fa7fb4--><g id="link_9353786c610935d80ba38fb14fa18f0e_63cd98c99bb9d208a6d40f16a5fa7fb4"><path codeLine="162" d="M1420.72,163.07 C1432.68,172.64 1446.53,181.66 1461,186.89 C1610.46,240.95 2739.22,175.72 2891,222.89 C2896.25,224.52 2896.139,224.0362 2901.199,226.6262 " fill="none" id="9353786c610935d80ba38fb14fa18f0e-to-63cd98c99bb9d208a6d40f16a5fa7fb4" style="stroke:#181818;stroke-width:1.0;"/><polygon fill="#181818" points="2906.54,229.36,2900.3511,221.6986,2902.0892,227.0818,2896.706,228.8199,2906.54,229.36" style="stroke:#181818;stroke-width:1.0;"/></g><!--link abf643f6d80ed4d514b872e06e39d6d1 to 3039c4a2cef5fb72d24a0c191921afc4--><g id="link_abf643f6d80ed4d514b872e06e39d6d1_3039c4a2cef5fb72d24a0c191921afc4"><path codeLine="163" d="M1980.5,163.33 C1995.68,172.79 2012.84,181.67 2030,186.89 C2238.5,250.3 2803.67,152.74 3010,222.89 C3015.88,224.89 3016.5393,224.6827 3022.0293,227.9627 " fill="none" id="abf643f6d80ed4d514b872e06e39d6d1-to-3039c4a2cef5fb72d24a0c191921afc4" style="stroke:#181818;stroke-width:1.0;"/><polygon fill="#181818" points="3027.18,231.04,3021.5054,222.9902,3022.8877,228.4756,3017.4023,229.8579,3027.18,231.04" style="stroke:#181818;stroke-width:1.0;"/></g><!--link ab0971a58d9bd28b86ee01516668dd5b to 63cd98c99bb9d208a6d40f16a5fa7fb4--><g id="link_ab0971a58d9bd28b86ee01516668dd5b_63cd98c99bb9d208a6d40f16a5fa7fb4"><path codeLine="164" d="M1566.6,163.32 C1577.25,172.78 1589.71,181.66 1603,186.89 C1736.24,239.28 2754.34,180.21 2891,222.89 C2896.25,224.53 2896.1455,224.0335 2901.1955,226.6335 " fill="none" id="ab0971a58d9bd28b86ee01516668dd5b-to-63cd98c99bb9d208a6d40f16a5fa7fb4" style="stroke:#181818;stroke-width:1.0;"/><polygon fill="#181818" points="2906.53,229.38,2900.3592,221.704,2902.0846,227.0913,2896.6973,228.8166,2906.53,229.38" style="stroke:#181818;stroke-width:1.0;"/></g><!--link d7c52d892c7a6e7f1df16c6291e81488 to 3039c4a2cef5fb72d24a0c191921afc4--><g id="link_d7c52d892c7a6e7f1df16c6291e81488_3039c4a2cef5fb72d24a0c191921afc4"><path codeLine="165" d="M2170.07,163.23 C2184.04,172.69 2199.93,181.59 2216,186.89 C2383.75,242.17 2843.02,165.32 3010,222.89 C3015.88,224.91 3016.5168,224.7268 3022.0168,228.0068 " fill="none" id="d7c52d892c7a6e7f1df16c6291e81488-to-3039c4a2cef5fb72d24a0c191921afc4" style="stroke:#181818;stroke-width:1.0;"/><polygon fill="#181818" points="3027.17,231.08,3021.489,223.0348,3022.8757,228.519,3017.3914,229.9057,3027.17,231.08" style="stroke:#181818;stroke-width:1.0;"/></g><!--link f30489f76321bdb7dd09ba5ac0c531b6 to 27f39f429e65b8e3529599009bd177dd--><g id="link_f30489f76321bdb7dd09ba5ac0c531b6_27f39f429e65b8e3529599009bd177dd"><path codeLine="166" d="M3193.94,163.31 C3198.71,181.96 3202.9132,198.4271 3207.6732,217.0371 " fill="none" id="f30489f76321bdb7dd09ba5ac0c531b6-to-27f39f429e65b8e3529599009bd177dd" style="stroke:#181818;stroke-width:1.0;"/><polygon fill="#181818" points="3209.16,222.85,3210.8051,213.1395,3207.921,218.0059,3203.0546,215.1219,3209.16,222.85" style="stroke:#181818;stroke-width:1.0;"/></g><!--link f30489f76321bdb7dd09ba5ac0c531b6 to 3039c4a2cef5fb72d24a0c191921afc4--><g id="link_f30489f76321bdb7dd09ba5ac0c531b6_3039c4a2cef5fb72d24a0c191921afc4"><path codeLine="167" d="M3149.93,163.31 C3133.58,181.96 3118.0046,199.7277 3101.6946,218.3377 " fill="none" id="f30489f76321bdb7dd09ba5ac0c531b6-to-3039c4a2cef5fb72d24a0c191921afc4" style="stroke:#181818;stroke-width:1.0;"/><polygon fill="#181818" points="3097.74,222.85,3106.6801,218.718,3101.0355,219.0897,3100.6637,213.4451,3097.74,222.85" style="stroke:#181818;stroke-width:1.0;"/></g><!--link f30489f76321bdb7dd09ba5ac0c531b6 to 63cd98c99bb9d208a6d40f16a5fa7fb4--><g id="link_f30489f76321bdb7dd09ba5ac0c531b6_63cd98c99bb9d208a6d40f16a5fa7fb4"><path codeLine="168" d="M3152.72,163.09 C3144.15,171.86 3134.35,180.47 3124,186.89 C3078.86,214.92 3058.12,200.36 3010,222.89 C3004.51,225.46 3004.1041,225.4291 2998.6641,228.5991 " fill="none" id="f30489f76321bdb7dd09ba5ac0c531b6-to-63cd98c99bb9d208a6d40f16a5fa7fb4" style="stroke:#181818;stroke-width:1.0;"/><polygon fill="#181818" points="2993.48,231.62,3003.27,230.5448,2997.8,229.1026,2999.2422,223.6327,2993.48,231.62" style="stroke:#181818;stroke-width:1.0;"/></g><!--SRC=[hLRBRY9N4Dtp5TOiBOtclc_L9ZyIHLQzhaq6Q0Gudb6KVq-1nm47Jvf5X5fYqNMeglCeQBMQNjRBRylDus9ByfKUxUuJRRUxvTuUQBly8jFEldowe_rToOmjQaXGj8OyCES4JRCL5TACTtykP5flfurj3dUAeMCqKYKMR2LewT5oL6r09SZThulx- -VTQdz_lrWiVhke39IJ_mohTgpKKmkGKH1wjH6pZLFbuSdMTbqBIQ6a4Gh63f9AogbahnAar3dqKwrCcuDzEpniTvFOVZ_jtd3-cN-zL5tP2xrDRgmvg8fL7vr2jZG4aw9Oxvcxl9kyMyqa0H9daJP2wvGYDKaKMicMp_rVjIyE1z0YC2DG7gsQhtQqWacguxwrFvQFFsh_yi_5wd9JjOuOa0f7gObYwfaoI3EDhpzzIUxZysRf16_-lO3BTuxFQGl8bckigYbJPUh1-HrY8IMqFgozsqBBeWY2wADe2a1DInYnKHtK1vTJAsFQhQz9r892_VYmowLMJP852lK6pch7dqjdj8nzb2OAmbfpGHugKRqwwc3zR_hFE3cuuWebiL47zwIfK9284Pt98Q_DFn-M7xMGGm4SlUKKMRch1cIgBWYfEN8xbVwnj9VhqjH7nb5ycwqo-AuJLgVIwpLs1pgLRkdxQY9zM3j5jhisZw9ZD4IglTW0z3LYq2oXXT43lodW0zlXKJbitAdB42UtZa4u81KPsbvjjvxKLbTsETZ-i7_L28nK0wEqLWnCWB5sviZTmG25tsa4N3krjS15_0Ky6fIB9al8ELTxpOWZ-CF-G0SRpwk7pNHOZkzNpPVeG3rOTSOhDvOcBUNiqWnEXrmWhMdZFLylhdCkuwZm4NtReqOU7Khk9PVQ1SSPuTL_3qBoTErWpnqTraq9FFWyyT1KY-kWb2ZZXuFF8wrSW3-RQRIcw0uO7cI2CSVOIglOl3qeZI-W7krmLTrA2Rtrc3YvybsCHNCbPQw0CGuyLx_OoiliWvsMRZY8zAY33Aa3ISbKHcAeG6S4ryIrcAbPQvxUOBKtH-g5NSJDeJpOGpjN_xwVDWyVspdrAabZaaZg2QCZH87WHyKIbqjEdenM7gdEY7ozWd4QCgL16MiE5kJO0y4nlugBnlWCCsCkp3LtS6d5u5yL0dko3evbK8GHx0pq4qg9FSizrhtKN1Kr5eQUB3JBg4xi6O0E1zVNsei-00dO8rLmTMW2XcOMOesjDV2ul1Z7Z-zLjUjeO0eiqK_BKU4aGC2UTWBkERvazK0V9PnsloiAVfAwSzpTBnxhRZU_1X0BmAMo-6cQlbwSgjc0_goVVvcDtyLiS9nWvaxGZJ2ptSn6nsqmiz5nsr2pfhcjcrdJd63cJjPYrZAt3JLhdDk6chNERTtCEk2sRcR_AjosujjW_gTkvdRpDm00]--></g></svg>