<svg xmlns="http://www.w3.org/2000/svg" xmlns:xlink="http://www.w3.org/1999/xlink" contentStyleType="text/css" height="619px" preserveAspectRatio="none" style="width:494px;height:619px;background:#FFFFFF;" version="1.1" viewBox="0 0 494 619" width="494px" zoomAndPan="magnify"><defs/><g><!--cluster 751bfcc2bb71c8a28f81b78368d92a1b--><g id="cluster_751bfcc2bb71c8a28f81b78368d92a1b"><polygon fill="none" points="16,16,26,6,426,6,426,501.48,416,511.48,16,511.48,16,16" style="stroke:#181818;stroke-width:1.0;"/><line style="stroke:#181818;stroke-width:1.0;" x1="416" x2="426" y1="16" y2="6"/><line style="stroke:#181818;stroke-width:1.0;" x1="16" x2="416" y1="16" y2="16"/><line style="stroke:#181818;stroke-width:1.0;" x1="416" x2="416" y1="16" y2="511.48"/><text fill="#000000" font-family="sans-serif" font-size="14" font-weight="bold" lengthAdjust="spacing" textLength="61" x="186.5" y="31.9951">Apprise</text></g><!--entity cb665e50b12732c515840ff63979ab77--><g id="elem_cb665e50b12732c515840ff63979ab77"><rect fill="#F1F1F1" height="95.1875" rx="2.5" ry="2.5" style="stroke:#181818;stroke-width:0.5;" width="378" x="32" y="46"/><rect fill="#F1F1F1" height="10" style="stroke:#181818;stroke-width:0.5;" width="15" x="390" y="51"/><rect fill="#F1F1F1" height="2" style="stroke:#181818;stroke-width:0.5;" width="4" x="388" y="53"/><rect fill="#F1F1F1" height="2" style="stroke:#181818;stroke-width:0.5;" width="4" x="388" y="57"/><text fill="#000000" font-family="sans-serif" font-size="14" font-weight="bold" lengthAdjust="spacing" textLength="59" x="47" y="78.9951">apprise</text><text fill="#000000" font-family="sans-serif" font-size="14" lengthAdjust="spacing" textLength="4" x="47" y="95.292">&#160;</text><text fill="#000000" font-family="sans-serif" font-size="14" lengthAdjust="spacing" textLength="338" x="47" y="111.5889">environment: APPRISE_STATEFUL_MODE=simple</text><text fill="#000000" font-family="sans-serif" font-size="14" lengthAdjust="spacing" textLength="4" x="47" y="127.8857">&#160;</text></g><!--entity a77f19b4604272a8f5e5bcbdf6dd6c92--><g id="elem_a77f19b4604272a8f5e5bcbdf6dd6c92"><ellipse cx="333" cy="231.19" fill="#F1F1F1" rx="8" ry="8" style="stroke:#181818;stroke-width:0.5;"/><text fill="#000000" font-family="sans-serif" font-size="14" lengthAdjust="spacing" textLength="36" x="315" y="261.1851">8000</text></g><!--entity 0738c0d615bc8c92e9628c382dfa9ab1--><g id="elem_0738c0d615bc8c92e9628c382dfa9ab1"><rect fill="#F1F1F1" height="39.2969" rx="2.5" ry="2.5" style="stroke:#181818;stroke-width:0.5;" width="174" x="134" y="456.19"/><polygon fill="#F1F1F1" points="291,461.19,291,475.19,303,475.19,303,467.19,297,461.19,291,461.19" style="stroke:#181818;stroke-width:0.5;"/><line style="stroke:#181818;stroke-width:0.5;" x1="297" x2="297" y1="461.19" y2="467.19"/><line style="stroke:#181818;stroke-width:0.5;" x1="303" x2="297" y1="467.19" y2="467.19"/><text fill="#000000" font-family="sans-serif" font-size="14" lengthAdjust="spacing" textLength="144" x="144" y="482.1851">/opt/apprise/webapp</text></g><!--entity 1624c420083928ef3e240dd88f2e52f0--><g id="elem_1624c420083928ef3e240dd88f2e52f0"><ellipse cx="469" cy="366.19" fill="#F1F1F1" rx="8" ry="8" style="stroke:#181818;stroke-width:0.5;"/><text fill="#000000" font-family="sans-serif" font-size="14" lengthAdjust="spacing" textLength="36" x="451" y="396.1851">8000</text></g><!--entity bab7ed2684cdcbd920c70a84e99fa18f--><g id="elem_bab7ed2684cdcbd920c70a84e99fa18f"><rect fill="#F1F1F1" height="39.2969" rx="2.5" ry="2.5" style="stroke:#181818;stroke-width:0.5;" width="117" x="162.5" y="574.48"/><polygon fill="#F1F1F1" points="262.5,579.48,262.5,593.48,274.5,593.48,274.5,585.48,268.5,579.48,262.5,579.48" style="stroke:#181818;stroke-width:0.5;"/><line style="stroke:#181818;stroke-width:0.5;" x1="268.5" x2="268.5" y1="579.48" y2="585.48"/><line style="stroke:#181818;stroke-width:0.5;" x1="274.5" x2="268.5" y1="585.48" y2="585.48"/><text fill="#000000" font-family="sans-serif" font-size="14" lengthAdjust="spacing" textLength="87" x="172.5" y="600.4751">./apprise_api</text></g><!--link cb665e50b12732c515840ff63979ab77 to a77f19b4604272a8f5e5bcbdf6dd6c92--><g id="link_cb665e50b12732c515840ff63979ab77_a77f19b4604272a8f5e5bcbdf6dd6c92"><path codeLine="14" d="M259.86,141.64 C284.37,171.31 313.74,206.86 326.52,222.34 " fill="none" id="cb665e50b12732c515840ff63979ab77-a77f19b4604272a8f5e5bcbdf6dd6c92" style="stroke:#181818;stroke-width:1.0;"/></g><!--link a77f19b4604272a8f5e5bcbdf6dd6c92 to 1624c420083928ef3e240dd88f2e52f0--><g id="link_a77f19b4604272a8f5e5bcbdf6dd6c92_1624c420083928ef3e240dd88f2e52f0"><path codeLine="15" d="M341.1,240.11 C365.35,263.82 437.15,334.04 461.11,357.47 " fill="none" id="a77f19b4604272a8f5e5bcbdf6dd6c92-1624c420083928ef3e240dd88f2e52f0" style="stroke:#181818;stroke-width:1.0;"/></g><!--link 0738c0d615bc8c92e9628c382dfa9ab1 to bab7ed2684cdcbd920c70a84e99fa18f--><g id="link_0738c0d615bc8c92e9628c382dfa9ab1_bab7ed2684cdcbd920c70a84e99fa18f"><path codeLine="16" d="M221,495.78 C221,517.4 221,552.57 221,574.2 " fill="none" id="0738c0d615bc8c92e9628c382dfa9ab1-bab7ed2684cdcbd920c70a84e99fa18f" style="stroke:#181818;stroke-width:1.0;"/><text fill="#000000" font-family="sans-serif" font-size="13" lengthAdjust="spacing" textLength="13" x="222" y="540.5469">ro</text></g><!--link cb665e50b12732c515840ff63979ab77 to 0738c0d615bc8c92e9628c382dfa9ab1--><g id="link_cb665e50b12732c515840ff63979ab77_0738c0d615bc8c92e9628c382dfa9ab1"><path codeLine="17" d="M221,141.6 C221,225.65 221,392.27 221,449.75 " fill="none" id="cb665e50b12732c515840ff63979ab77-to-0738c0d615bc8c92e9628c382dfa9ab1" style="stroke:#181818;stroke-width:1.0;stroke-dasharray:7.0,7.0;"/><polygon fill="#181818" points="221,455.75,225,446.75,221,450.75,217,446.75,221,455.75" style="stroke:#181818;stroke-width:1.0;"/><text fill="#000000" font-family="sans-serif" font-size="13" lengthAdjust="spacing" textLength="23" x="222" y="303.2569">use</text></g><!--SRC=[ZP9BIyD058Ntyok6h3JGTEOccRbJK2XOGL0ijgv4oZmbq3n8enN4_-uO5NGLTtTnptVEkJDwls-FTVLQDK-aQPsdoRBh-khW4weFL9RS16l16CajQi20t4ZC1Je5cXlwHgXjwwvjV3DGQuGeVSaC1vc3BNc91Gj1v4egRQIa3oHDzHS-JGdnpKlLjqqTjGkwNA_lhZQhtMQxtAukxwztDxSNgxD3LNTxJyWZEJcb2JB6nbnQoi2LAGGhG8B646sDDIu8vuHLG7G_L47RWIRpjXlctwRpepTn715CvcYP4pmACKgy4e0sHt11nxISlF-rv08AMm1Zc2j07t8F1NCECO0l8R1VbjcFtqvtrIWsiRvt8B2mBiPKmAna6WklLD0S0vaytSpD_j5wOc6aJ1QPkin8cMf45pJfssIwM9QvB3kVV8vFtdFybHy0]--></g></svg>