<svg xmlns="http://www.w3.org/2000/svg" class="apprise-logo left" viewBox="0 0 72 29.522"><metadata>© 2026 Chris Caron. All rights reserved. Apprise logo and associated marks. https://github.com/caronc/apprise-api</metadata><defs><linearGradient id="b" x1="0%" x2="100%" y1="0%" y2="100%"><stop offset="0%" stop-color="var(--apprise-logo-body-1, #38bdb4)"/><stop offset="100%" stop-color="var(--apprise-logo-body-2, #0f5f57)"/></linearGradient><linearGradient id="a" x1="0%" x2="100%" y1="0%" y2="0%"><stop offset="0%" stop-color="var(--apprise-logo-text-1, #1a7770)"/><stop offset="100%" stop-color="var(--apprise-logo-text-2, #0a4b46)"/></linearGradient></defs><g fill="var(--apprise-logo-wave, #9eb3b5)" class="logo-wave"><path d="M15.483 0v.066c1.85.26 3.792 1.168 5.448 2.032 1.883.981 3.685 2.201 5.029 3.913 3.777 4.813 3.657 12.676-.003 17.505-1.828 2.411-4.779 3.95-7.497 5-.968.373-2.012.8-3.04.945.302.132.632.01.95 0a14 14 0 0 0 2.787-.368c4.034-.928 7.878-3.644 9.539-7.69 2.148-5.234 1.916-12.045-1.884-16.449-1.458-1.688-3.291-2.966-5.311-3.801C19.606.369 17.515 0 15.483 0"/><path d="M16.116 0v.066c1.85.26 3.792 1.168 5.448 2.032 1.883.981 3.685 2.201 5.029 3.913 3.777 4.813 3.657 12.676-.003 17.505-1.829 2.411-4.779 3.95-7.497 5-.969.373-2.012.8-3.04.945.302.132.632.01.95 0a14 14 0 0 0 2.787-.368c4.034-.928 7.877-3.644 9.539-7.69 2.147-5.234 1.916-12.045-1.885-16.449-1.457-1.688-3.29-2.966-5.31-3.801C20.239.369 18.148 0 16.116 0"/></g><path fill="url(#a)" d="m44.731 39.413.677 2.074h2.173L44.025 31.2h-2.342l-3.655 10.287h2.16l.69-2.074zm-.579-1.764h-2.68l1.34-4.022zm6.887.17h2.638c1.891 0 3.105-1.341 3.105-3.43 0-2.06-1.171-3.189-3.316-3.189h-4.544v10.287h2.117zm0-1.764v-3.09h1.975c1.13 0 1.651.493 1.651 1.537 0 1.059-.522 1.553-1.65 1.553zm9.087-4.855H58.01v10.287h2.117z" class="logo-wordmark" transform="translate(-14.803 -15.97)"/><path fill="url(#a)" d="m71.052 27.553-.7 2.03c2.625 1.093 8.19 1.71 8.19-2.52 0-.503-.072-1.002-.262-1.47-.843-2.071-3.39-1.685-4.775-3.018-.51-.49-.463-1.233.207-1.563.562-.276 1.36-.227 1.96-.127.565.095 1.064.358 1.61.508l.7-1.96c-2.37-1.262-7.402-1.22-7.42 2.45-.002.433-.003.846.146 1.26.833 2.312 3.708 1.696 5.007 3.36.574.736-.045 1.5-.813 1.687-1.31.32-2.66-.142-3.85-.637m-31.992-8.47v11.13h2.52v-3.78c1.553 0 3.347.01 4.69-.892 1.767-1.187 1.917-4.398.21-5.721-2.042-1.583-5.08-.922-7.42-.737m9.24 0v11.13h2.52v-3.78c1.553 0 3.348.01 4.691-.892 1.767-1.187 1.917-4.398.21-5.72-2.043-1.584-5.08-.922-7.42-.738m9.24 0v11.131h2.52v-4.13c.354 0 .926-.109 1.24.072 1.336.768 1.482 2.985 2.585 3.946.2.174.55.112.795.112h2.03c-.508-1.765-1.932-3.088-2.73-4.69 2.522-.486 2.676-4.34.91-5.703-2.032-1.569-5.025-.92-7.35-.737m9.59-.14v11.27h2.521v-11.27zm12.182 0v11.27h7.49v-2.17h-4.97v-2.66h4.48v-2.1h-4.48v-2.17h4.97v-2.17zm-37.732 5.32v-3.29c.85 0 1.868-.143 2.66.238.935.45 1.16 1.99.273 2.624-.804.577-2.003.428-2.933.428m9.24 0v-3.29c.851 0 1.869-.143 2.66.238.935.45 1.161 1.99.274 2.624-.805.577-2.003.428-2.934.428m9.24-.21v-3.08c.882 0 1.927-.134 2.73.309.884.487.927 1.883.07 2.421-.785.494-1.917.35-2.8.35" class="logo-wordmark" transform="translate(-14.803 -15.97)"/><path fill="url(#b)" d="M19.422 26.55c.661 2.746.905 5.737 1.26 8.54l4.41-.63c-.696 1.137-1.396 2.274-2.06 3.43-.272.476-.761 1.05-.801 1.61-.072 1 1.97 2.206 2.784 1.513.462-.393.768-1.13 1.068-1.652.579-1.009 1.2-1.988 1.756-3.01.234-.432.66-1.622 1.176-1.737.513-.115 1.251.217 1.748.336 1.86.45 3.699 1.272 5.32 2.281.802.5 2.019 1.587 2.824.449.27-.38.175-.831.116-1.26-.125-.91-.28-1.818-.4-2.73-.486-3.693-1.113-7.369-1.61-11.06-.14-1.043-.134-2.383-.52-3.36-.16-.404-.58-.665-1.01-.666-.844-.001-1.283.895-1.786 1.435a23 23 0 0 1-3.564 3.13c-3.262 2.301-6.844 2.891-10.711 3.38m14.98-1.54.77 7.351h-5.32c.717-1.712 1.931-3.328 2.91-4.9.48-.77.949-1.862 1.64-2.45m-15.89 10.22c-.214-2.712-.692-5.515-1.19-8.19-2.404.76-3.12 3.986-2.009 6.02.674 1.235 1.855 1.91 3.199 2.17" class="logo-mark" transform="translate(-14.803 -15.97)"/></svg>