{# From dice-2-svgrepo-com.svg, supplied by SVG Repo. #}
<svg xmlns="http://www.w3.org/2000/svg"
     viewBox="0 0 512 512"
     aria-hidden="true">
  <path fill="currentColor" d="M454.608 111.204 280.557 6.804A47.84 47.84 0 0 0 256 0a47.83 47.83 0 0 0-24.557 6.797L57.392 111.204a47.84 47.84 0 0 0-13.555 12.192l207.902 124.707a8.3 8.3 0 0 0 8.518 0L468.16 123.396a47.8 47.8 0 0 0-13.552-12.192ZM177.16 131.738c-12.056 8.371-31.302 8.16-42.984-.49s-11.382-22.463.678-30.842c12.056-8.386 31.304-8.16 42.992.482 11.679 8.651 11.374 22.456-.686 30.85Zm199.143 2.388c-12.056 8.38-31.306 8.16-42.992-.49-11.68-8.65-11.378-22.462.685-30.841 12.053-8.38 31.302-8.168 42.985.482 11.683 8.651 11.378 22.455-.678 30.849ZM246.136 258.366 38.004 133.523a47.8 47.8 0 0 0-3.794 18.62v208.084a47.75 47.75 0 0 0 23.182 40.946l174.051 104.392A47.8 47.8 0 0 0 250.157 512V265.464a8.29 8.29 0 0 0-4.021-7.098ZM75.845 369.736c-12.052-6.571-21.829-21.671-21.829-33.728s9.777-16.502 21.829-9.931c12.056 6.57 21.826 21.671 21.826 33.728s-9.769 16.501-21.826 9.931Zm0-121.867c-12.052-6.578-21.829-21.678-21.829-33.728s9.777-16.501 21.829-9.931c12.056 6.571 21.826 21.671 21.826 33.728s-9.769 16.502-21.826 9.931Zm60.934 94.145c-12.056-6.571-21.826-21.671-21.826-33.728s9.769-16.502 21.826-9.931c12.056 6.571 21.829 21.671 21.829 33.728s-9.773 16.502-21.829 9.931Zm60.937 94.144c-12.056-6.571-21.83-21.671-21.83-33.727s9.773-16.495 21.83-9.924c12.056 6.57 21.826 21.67 21.826 33.72s-9.769 16.502-21.826 9.931Zm0-121.866c-12.056-6.57-21.83-21.671-21.83-33.727s9.773-16.502 21.83-9.931c12.056 6.571 21.826 21.671 21.826 33.727s-9.769 16.502-21.826 9.931ZM473.992 133.523 265.864 258.366a8.29 8.29 0 0 0-4.02 7.098V512a47.8 47.8 0 0 0 18.714-6.435l174.051-104.392a47.75 47.75 0 0 0 23.182-40.946V152.143a47.8 47.8 0 0 0-3.799-18.62ZM321.232 262.932c12.053-6.571 21.826-2.125 21.826 9.931 0 12.049-9.773 27.149-21.826 33.72-12.06 6.571-21.83 2.125-21.83-9.924 0-12.055 9.77-27.156 21.83-33.727Zm0 185.803c-12.06 6.57-21.83 2.125-21.83-9.931s9.77-27.15 21.83-33.728c12.053-6.571 21.826-2.118 21.826 9.931 0 12.057-9.773 27.157-21.826 33.728Zm1.304-71.072c-12.056 6.571-21.83 2.117-21.83-9.939 0-12.048 9.773-27.149 21.83-33.72 12.056-6.57 21.826-2.125 21.826 9.931s-9.77 27.157-21.826 33.728Zm104.784 8.74c-12.056 6.571-21.826 2.125-21.826-9.931s9.769-27.156 21.826-33.72c12.056-6.578 21.829-2.133 21.829 9.924s-9.773 27.156-21.829 33.727Zm0-71.071c-12.056 6.563-21.826 2.125-21.826-9.931s9.769-27.157 21.826-33.728c12.056-6.571 21.829-2.125 21.829 9.931 0 12.049-9.773 27.157-21.829 33.728Zm0-71.079c-12.056 6.57-21.826 2.125-21.826-9.924s9.769-27.157 21.826-33.728c12.056-6.571 21.829-2.125 21.829 9.931 0 12.05-9.773 27.15-21.829 33.721Z" />
</svg>
