<svg xmlns="http://www.w3.org/2000/svg" aria-hidden="true" viewBox="0 0 24 24"><metadata>© 2026 Chris Caron. All rights reserved. Apprise logo and associated marks. https://github.com/caronc/apprise-api</metadata><path fill="currentColor" d="M12 0A12 12 0 0 0 0 12a12 12 0 0 0 12 12 12 12 0 0 0 12-12A12 12 0 0 0 12 0m5.01 4.744c.688 0 1.25.561 1.25 1.249a1.25 1.25 0 0 1-2.498.056l-2.597-.547-.8 3.747c1.824.07 3.48.632 4.674 1.488.308-.309.73-.491 1.207-.491.968 0 1.754.786 1.754 1.754 0 .716-.435 1.333-1.01 1.614a3 3 0 0 1 .042.52c0 2.694-3.13 4.87-7.004 4.87s-7.004-2.176-7.004-4.87c0-.183.015-.366.043-.534A1.75 1.75 0 0 1 4.028 12c0-.968.786-1.754 1.754-1.754.463 0 .898.196 1.207.49 1.207-.883 2.878-1.43 4.744-1.487l.885-4.182a.34.34 0 0 1 .14-.197.35.35 0 0 1 .238-.042l2.906.617a1.21 1.21 0 0 1 1.108-.701M9.25 12C8.561 12 8 12.562 8 13.25s.561 1.248 1.25 1.248c.687 0 1.248-.561 1.248-1.249S9.937 12 9.249 12zm5.5 0c-.687 0-1.248.561-1.248 1.25 0 .687.561 1.248 1.249 1.248S16 13.937 16 13.249c0-.687-.562-1.249-1.25-1.249m-5.466 3.99a.33.33 0 0 0-.231.094.33.33 0 0 0 0 .463c.842.842 2.484.913 2.961.913s2.105-.056 2.961-.913a.36.36 0 0 0 .029-.463.33.33 0 0 0-.464 0c-.547.533-1.684.73-2.512.73s-1.979-.196-2.512-.73a.33.33 0 0 0-.232-.095z"/></svg>